# xmcd
#
# Track frame offsets: 
#        150
#        674
#        15960
#        32652
#        50824
#        66388
#        84069
#        101727
#        118941
#        136415
#        154415
#        171599
#        190358
#        207533
#        222933
#        241610
#        258724
#        276706
#        293730
#        310418
#
# Disc length: 4424 seconds
#
# Revision: 0
# Processed by: cddbd v1.5.2PL0 Copyright (c) Steve Scherf et al.
# Submitted via: ExactAudioCopy v0.99pb4
#
DISCID=34114614
DTITLE=Various Artist - prevue promo 1050A-2
DYEAR=2000
DGENRE=pop
TTITLE0=blank - data
TTITLE1=Bottlefly - Got2 B Luv
TTITLE2=Angela Via - I don't Care
TTITLE3=shawn Mullins - Everwhere I go
TTITLE4=Tahiti 80 - Heartbeat
TTITLE5=Collapsis - October
TTITLE6=Creed - With Arms Wide Open(with strings new version)
TTITLE7=Ideal feat. Lil' Mo - Whatever You Wanna do
TTITLE8=SisQo - incomplete
TTITLE9=Ruff Ends - No More
TTITLE10=Shaggy - It Wasn't Me(lyrics)
TTITLE11=Steely Dan - Janie Runaway
TTITLE12=Alison Krauss - Maybe
TTITLE13=Orgy - Fiction(Dreams In Digital)
TTITLE14=Iron Maiden - Out Of The Silent Planet
TTITLE15=Dust For Life - Step into the light
TTITLE16=Ninedays - If I Am
TTITLE17=A - Monkey Kong
TTITLE18=AC-DC - Meltdown
TTITLE19=Alice Cooper - Gimme
EXTD=
EXTT0=
EXTT1=
EXTT2=
EXTT3=
EXTT4=
EXTT5=
EXTT6=
EXTT7=
EXTT8=
EXTT9=
EXTT10=
EXTT11=
EXTT12=
EXTT13=
EXTT14=
EXTT15=
EXTT16=
EXTT17=
EXTT18=
EXTT19=
PLAYORDER=
